<?xml version="1.0" encoding="UTF-8"?>
<svg version="1.1" xmlns="http://www.w3.org/2000/svg" width="500" height="500">
<path d="M0 0 C6.56675327 6.26931949 13.17310429 12.57870295 18.18359375 20.1953125 C23.19889879 27.79330697 27.47101472 32.3911393 35.6328125 36.89453125 C40.88978959 39.90304223 45.35276806 43.74601442 49.875 47.75 C50.58269531 48.37390625 51.29039062 48.9978125 52.01953125 49.640625 C66.69543917 63.41918944 76.27431049 83.24306054 77.22265625 103.35546875 C77.8186597 127.18380464 71.87155041 150.6456258 58.33203125 170.484375 C55.16501294 175.48037964 53.97635147 180.87220575 52.5625 186.5625 C44.64183543 216.42773054 29.814237 243.05402923 8.875 265.75 C8.34036133 266.32991699 7.80572266 266.90983398 7.25488281 267.50732422 C-6.95059425 282.71549148 -23.7103486 295.15889624 -42.15600586 304.81298828 C-46.44954322 307.05142443 -46.44954322 307.05142443 -48.4375 311.5 C-48.90678462 314.49354187 -49.20634752 317.49529819 -49.53515625 320.5078125 C-51.91566763 341.84785427 -51.91566763 341.84785427 -59.125 347.75 C-62.24884647 348.70711837 -64.9617782 348.50414559 -68.125 347.75 C-73.36916608 344.70758304 -76.76566801 339.93935435 -80.375 335.1875 C-85.16726275 329.28682273 -89.7147324 325.71142089 -97.125 323.75 C-100.69176661 323.90696255 -100.69176661 323.90696255 -104.4921875 324.58984375 C-114.81795464 326.05256143 -125.09199105 326.1221765 -135.50634766 326.12060547 C-138.72482791 326.1249659 -141.94191785 326.1613918 -145.16015625 326.19921875 C-179.61923861 326.38496293 -209.72125939 318.0963833 -235.3125 294.25 C-238.12395477 291.75092909 -241.02410738 289.52799462 -244.0625 287.3125 C-250.53496051 282.55653937 -256.32595434 277.28868034 -262.125 271.75 C-262.97964844 270.94820313 -263.83429688 270.14640625 -264.71484375 269.3203125 C-276.20491122 258.24773563 -285.10833838 245.47698648 -293.125 231.75 C-293.74157471 230.72156982 -293.74157471 230.72156982 -294.37060547 229.67236328 C-318.12997307 189.65902769 -324.28291778 138.33896215 -313.48193359 93.35620117 C-309.27876682 77.03891937 -303.14805321 61.55143134 -295.125 46.75 C-294.56039062 45.70457031 -293.99578125 44.65914063 -293.4140625 43.58203125 C-286.98056244 32.14973184 -279.40064444 21.74961792 -270.421875 12.19921875 C-268.43391246 10.07940156 -266.55365364 7.9135547 -264.6875 5.6875 C-251.35437155 -9.48891809 -233.98847 -21.07046582 -216.125 -30.25 C-215.46741699 -30.59369629 -214.80983398 -30.93739258 -214.13232422 -31.29150391 C-144.28764748 -67.42624684 -56.97147489 -53.07735045 0 0 Z M-250.125 4.75 C-251.45441948 5.87962233 -252.78763718 7.00479312 -254.125 8.125 C-286.33415932 36.3967671 -305.62209333 80.93193861 -308.96606445 123.10375977 C-311.88619842 171.72331744 -297.00637979 219.33670527 -264.5625 256 C-263.42150962 257.25442217 -262.27764286 258.50627637 -261.125 259.75 C-260.795 259.09 -260.465 258.43 -260.125 257.75 C-260.93441107 255.39175345 -261.80500464 253.11628875 -262.75 250.8125 C-264.64478787 246.12353741 -266.24589142 241.57080594 -267.25390625 236.60546875 C-268.5894399 227.67175665 -268.5894399 227.67175665 -273.70703125 220.8359375 C-276.50295166 219.91519263 -279.24393902 219.33229588 -282.125 218.75 C-287.29507888 214.78993958 -290.57869229 209.53552612 -291.51171875 203.0703125 C-291.82956968 195.15692027 -289.79856485 190.11105295 -284.9375 184 C-282.39443937 181.9655515 -280.40060267 180.87844342 -277.44921875 179.609375 C-276.23431763 179.0829541 -276.23431763 179.0829541 -274.99487305 178.54589844 C-274.37781494 178.28325195 -273.76075684 178.02060547 -273.125 177.75 C-273.00116037 173.55088403 -272.91055393 169.35274184 -272.8503418 165.15234375 C-272.82523653 163.72442099 -272.79114413 162.29662625 -272.74780273 160.86914062 C-272.68696322 158.81348082 -272.65875449 156.75952247 -272.63671875 154.703125 C-272.61053467 153.46723633 -272.58435059 152.23134766 -272.55737305 150.95800781 C-272.82893737 147.56984643 -272.82893737 147.56984643 -275.57348633 145.42871094 C-276.41548584 144.87473633 -277.25748535 144.32076172 -278.125 143.75 C-280.64981154 140.26335549 -280.55974022 136.95248882 -280.125 132.75 C-278.41282963 129.38907297 -277.06086045 127.34791085 -273.875 125.3125 C-270.06440558 124.53306023 -266.85434532 124.59729327 -263.125 125.75 C-259.58766877 128.30892046 -258.36536412 129.9387711 -257.125 134.125 C-257.125 138.44972408 -258.02522655 140.98488899 -260.125 144.75 C-261.15898926 145.39449097 -261.15898926 145.39449097 -262.21386719 146.05200195 C-264.42639018 147.65513955 -264.42639018 147.65513955 -264.57910156 150.66088867 C-264.5581543 151.8182251 -264.53720703 152.97556152 -264.515625 154.16796875 C-264.50273437 155.42158203 -264.48984375 156.67519531 -264.4765625 157.96679688 C-264.42628906 159.93229492 -264.42628906 159.93229492 -264.375 161.9375 C-264.35493307 163.2727601 -264.33668262 164.60804883 -264.3203125 165.94335938 C-264.27309803 169.21296146 -264.20725184 172.48112192 -264.125 175.75 C-261.59314626 172.40478599 -259.228897 168.97323264 -256.875 165.5 C-241.1695266 142.85760216 -216.87529734 128.62275588 -190.25 122.25 C-183.32974263 120.57179152 -183.32974263 120.57179152 -178.5 115.5625 C-177.54277463 113.42306039 -177.125 112.08886239 -177.125 109.75 C-173.54077302 107.88620197 -169.84025696 106.33234398 -166.125 104.75 C-165.93508872 101.7053906 -165.79698433 98.67268634 -165.6875 95.625 C-165.62884766 94.7690625 -165.57019531 93.913125 -165.50976562 93.03125 C-165.32009808 88.10002574 -165.32009808 88.10002574 -167.65942383 83.94775391 C-168.90547699 82.93428236 -170.17916087 81.9537147 -171.47973633 81.01123047 C-174.33600973 78.82166104 -174.51883772 76.43721348 -175.0546875 73.0625 C-175.19939407 68.30326162 -173.61750891 64.22752672 -172.125 59.75 C-171.465 59.75 -170.805 59.75 -170.125 59.75 C-170.125 59.09 -170.125 58.43 -170.125 57.75 C-162.86763668 55.50681497 -156.42165439 55.43912898 -149.125 57.75 C-148.0625 59.5625 -148.0625 59.5625 -147.125 61.75 C-146.14281205 63.0965083 -145.14478692 64.43173886 -144.125 65.75 C-143.66351563 65.14414063 -143.20203125 64.53828125 -142.7265625 63.9140625 C-123.88757207 39.71377835 -97.91818095 24.45903008 -68.125 17.75 C-67.08122192 17.48509766 -67.08122192 17.48509766 -66.01635742 17.21484375 C-58.17533251 15.38584283 -50.32017311 15.35558264 -42.3125 15.375 C-41.58699951 15.37454681 -40.86149902 15.37409363 -40.11401367 15.37362671 C-25.22275954 15.4008828 -11.09058076 16.99971735 2.9296875 22.26831055 C5.06972568 22.98230237 5.06972568 22.98230237 7.875 21.75 C-25.65653212 -15.58528358 -68.83112205 -38.49527136 -119.23144531 -41.86621094 C-167.34837555 -44.36058847 -214.94491581 -28.48643313 -250.125 4.75 Z M37.640625 193.96484375 C36.89039063 194.81755859 36.89039063 194.81755859 36.125 195.6875 C22.77367092 209.28556822 3.08541772 216.64765315 -15.125 220.75 C-16.33929688 221.02457031 -17.55359375 221.29914063 -18.8046875 221.58203125 C-21.00642664 222.07975179 -23.21057723 222.56704167 -25.41796875 223.0390625 C-27.99038531 223.71464665 -29.89748529 224.30951736 -32.125 225.75 C-32.83934912 227.65272109 -32.83934912 227.65272109 -32.92578125 229.921875 C-33.01206787 230.7989209 -33.09835449 231.6759668 -33.18725586 232.57958984 C-33.26983643 233.5433252 -33.35241699 234.50706055 -33.4375 235.5 C-34.89080244 249.0764753 -38.04042494 262.13105337 -41.296875 275.37109375 C-42.41863463 279.94808467 -43.49259272 284.53567408 -44.5625 289.125 C-44.87324961 290.44541809 -45.1843865 291.76574515 -45.49609375 293.0859375 C-45.70363281 293.96507812 -45.91117187 294.84421875 -46.125 295.75 C-34.57735358 291.55684322 -24.24866493 283.79119621 -15.125 275.75 C-14.31933594 275.05390625 -13.51367188 274.3578125 -12.68359375 273.640625 C-10.12091911 271.38645854 -7.6158385 269.08332959 -5.125 266.75 C-4.62742187 266.2864209 -4.12984375 265.8228418 -3.6171875 265.34521484 C15.96842784 246.94752014 36.07779389 219.76022725 40.875 192.75 C38.82392193 192.51618478 38.82392193 192.51618478 37.640625 193.96484375 Z " fill="#000000" transform="translate(376.125,99.25)"/>
<path d="M0 0 C0.72716217 0.00021149 1.45432434 0.00042297 2.20352173 0.00064087 C14.57916023 0.03648078 26.19265823 1.18001033 38.1875 4.375 C38.868125 4.53033203 39.54875 4.68566406 40.25 4.84570312 C50.4286761 7.1783164 55.63898014 12.0367754 61.04492188 20.55273438 C61.42197266 21.15408203 61.79902344 21.75542969 62.1875 22.375 C62.56712891 22.95572266 62.94675781 23.53644531 63.33789062 24.13476562 C75.54608798 42.83181745 84.20017088 63.63453519 89.1875 85.375 C89.63996094 87.27378906 89.63996094 87.27378906 90.1015625 89.2109375 C95.73097483 116.03118013 94.82216719 149.6486749 85.1875 175.375 C83.0625 178 83.0625 178 80.1875 180.375 C79.57132813 180.96667969 78.95515625 181.55835938 78.3203125 182.16796875 C63.07197146 196.60641622 39.45838442 207.80551789 18.1796875 208.46875 C17.52226562 208.4378125 16.86484375 208.406875 16.1875 208.375 C16.78498047 207.75625 16.78498047 207.75625 17.39453125 207.125 C23.34319453 200.64081229 25.83848264 194.63934907 25.5390625 185.765625 C24.64734685 179.70195859 20.79425513 175.23181825 16.1875 171.375 C14.98396483 170.78723844 13.75968363 170.24032228 12.51953125 169.734375 C11.41996094 169.28578125 10.32039063 168.8371875 9.1875 168.375 C9.03885454 163.33973046 8.93014861 158.30574515 8.85791016 153.26879883 C8.82779022 151.55665841 8.78688408 149.84467163 8.73486328 148.13305664 C8.66182764 145.66774589 8.62799898 143.2044787 8.6015625 140.73828125 C8.55511093 139.59580681 8.55511093 139.59580681 8.50772095 138.43025208 C8.50586902 135.4864833 8.53369762 133.11930722 10.53515625 130.84078979 C12.04194082 129.62870235 13.61265868 128.49724351 15.1875 127.375 C16.29469524 123.59751035 16.03138882 120.20407377 15.1875 116.375 C13.4931608 113.41149286 12.42561928 113.02246419 9.1875 111.375 C6.02439861 110.71463322 3.34033477 110.63179033 0.1875 111.375 C-2.56819447 113.55659145 -4.24838747 115.24677494 -5.8125 118.375 C-6.1876455 123.34567782 -5.97128799 126.42651502 -2.8125 130.375 C-0.8325 131.365 -0.8325 131.365 1.1875 132.375 C1.1875 143.925 1.1875 155.475 1.1875 167.375 C-1.47126809 164.71623191 -3.02565258 162.55217638 -4.9375 159.375 C-22.15263091 131.93951769 -49.73328752 114.3667975 -80.8125 106.375 C-85.07621067 105.51881244 -89.34094375 104.87477901 -93.66015625 104.37109375 C-97.83578444 103.05165733 -98.69435093 101.10540093 -100.8125 97.375 C-104.01017326 94.00558469 -107.47691589 91.98892302 -111.8125 90.375 C-112.00241128 87.3303906 -112.14051567 84.29768634 -112.25 81.25 C-112.30865234 80.3940625 -112.36730469 79.538125 -112.42773438 78.65625 C-112.59847827 72.31433373 -112.59847827 72.31433373 -110.29345703 69.55957031 C-108.41015625 68.0078125 -108.41015625 68.0078125 -106.52368164 66.73095703 C-104.50292736 65.12969162 -103.75298753 63.75778274 -102.8125 61.375 C-102.69559808 59.64865775 -102.63748377 57.91775078 -102.625 56.1875 C-102.08463242 49.49934392 -99.3388651 46.12647739 -94.8125 41.375 C-94.01457031 40.49972656 -93.21664062 39.62445313 -92.39453125 38.72265625 C-74.54820355 19.92733623 -50.92555735 8.03012817 -25.8125 2.375 C-25.11664795 2.19839844 -24.4207959 2.02179688 -23.70385742 1.83984375 C-15.86337186 0.01096864 -8.00734351 -0.02144672 0 0 Z " fill="#A5A5A5" transform="translate(333.8125,113.625)"/>
<path d="M0 0 C20.0858068 7.53217755 36.21339787 26.13948254 45.17480469 45.11572266 C55.15197487 67.89791185 52.45594838 94.32248245 43.79931641 117.046875 C40.08994595 126.11070018 35.42929612 134.85605582 30 143 C28.8474199 139.5422597 29.22049506 138.13966302 29.91796875 134.60546875 C31.31616015 126.09970622 31.33635186 117.66808079 31.31567383 109.0637207 C31.31252525 106.3343869 31.33601452 103.60615299 31.36132812 100.87695312 C31.4032939 89.2833994 30.33712723 78.35248192 28 67 C27.80656006 66.05584229 27.61312012 65.11168457 27.41381836 64.13891602 C26.93012067 61.95011006 26.39607454 59.78911034 25.8125 57.625 C25.49949951 56.46266846 25.49949951 56.46266846 25.18017578 55.27685547 C19.64906837 35.60411582 10.1770677 17.61964291 0 0 Z " fill="#A5A5A5" transform="translate(402,131)"/>
<path d="M0 0 C0.86368698 -0.00525696 1.72737396 -0.01051392 2.61723328 -0.01593018 C5.47612519 -0.02914898 8.33446166 -0.02038547 11.19335938 -0.01025391 C13.17728787 -0.0122741 15.16121565 -0.01518508 17.1451416 -0.01895142 C21.30467798 -0.02337732 25.46402121 -0.01693511 29.62353516 -0.00292969 C34.96040471 0.01416229 40.29682168 0.00432254 45.63367462 -0.01364708 C49.73084943 -0.0244777 53.82791659 -0.02104189 57.9250946 -0.0132637 C59.8931229 -0.0112597 61.8611609 -0.01372797 63.82917786 -0.02070236 C66.57778888 -0.02830494 69.32566275 -0.01672949 72.07421875 0 C73.2992939 -0.00910904 73.2992939 -0.00910904 74.54911804 -0.0184021 C80.03188134 0.04355128 80.03188134 0.04355128 82.54260254 1.75619507 C83.98326286 4.12032271 83.94407032 5.6751106 83.53710938 8.38818359 C82.54260254 10.02017212 82.54260254 10.02017212 80.53710938 11.38818359 C77.64469485 11.68443561 74.96758454 11.79788079 72.07421875 11.77636719 C71.21053177 11.78162415 70.34684479 11.7868811 69.45698547 11.79229736 C66.59809356 11.80551617 63.73975709 11.79675265 60.88085938 11.78662109 C58.89693088 11.78864129 56.9130031 11.79155227 54.92907715 11.7953186 C50.76954077 11.79974451 46.61019754 11.7933023 42.45068359 11.77929688 C37.11381404 11.76220489 31.77739707 11.77204465 26.44054413 11.79001427 C22.34336932 11.80084489 18.24630216 11.79740907 14.14912415 11.78963089 C12.18109585 11.78762689 10.21305785 11.79009515 8.24504089 11.79706955 C5.49642987 11.80467213 2.748556 11.79309668 0 11.77636719 C-1.22507515 11.78547623 -1.22507515 11.78547623 -2.47489929 11.79476929 C-7.95766259 11.73281591 -7.95766259 11.73281591 -10.46838379 10.02017212 C-11.90904411 7.65604447 -11.86985157 6.10125658 -11.46289062 3.38818359 C-8.88635637 -0.8399164 -4.40335404 -0.03274111 0 0 Z " fill="#FDFDFD" transform="translate(185.462890625,361.61181640625)"/>
<path d="M0 0 C5.09476371 1.98972383 8.96087757 5.09617324 11.375 10.04296875 C12.55715381 13.74458788 12.69625375 17.18452943 12 21 C9.42910066 25.86634517 6.32916985 30.22361005 1 32 C-4.39033946 32.60083402 -9.37358249 32.96597689 -14 29.8125 C-17.55826925 26.73207986 -19.72053697 24.28111698 -20.3125 19.44921875 C-20.57234398 13.44844674 -20.17326721 9.62443123 -16 5 C-10.69687713 0.32820128 -7.00928506 -0.97258022 0 0 Z " fill="#F2F2F2" transform="translate(259,303)"/>
<path d="M0 0 C5.09476371 1.98972383 8.96087757 5.09617324 11.375 10.04296875 C12.55715381 13.74458788 12.69625375 17.18452943 12 21 C9.42910066 25.86634517 6.32916985 30.22361005 1 32 C-4.39033946 32.60083402 -9.37358249 32.96597689 -14 29.8125 C-17.44065379 26.84215141 -19.72027256 24.34813461 -20.27734375 19.671875 C-20.47518245 14.38562505 -20.10499429 10.45049181 -17 6 C-11.62619718 0.72650816 -7.4578999 -1.03482822 0 0 Z " fill="#F2F2F2" transform="translate(193,303)"/>
<path d="M0 0 C5.08120958 2.89135993 7.67037995 5.72555364 9.90625 11.12890625 C10.54971506 16.36855032 9.78643993 19.71261502 6.90625 24.12890625 C2.916221 28.17344385 -0.68766754 30.25374983 -6.40625 30.44140625 C-11.04447771 30.37363994 -13.55588699 29.25538984 -17.09375 26.12890625 C-21.03112065 21.77707553 -21.72798042 18.21157727 -21.48046875 12.52734375 C-20.69991328 7.68632299 -18.05626592 4.99751817 -14.53125 1.81640625 C-10.03003775 -1.29981761 -5.17067978 -2.15123431 0 0 Z " fill="#FDFDFD" transform="translate(396.09375,203.87109375)"/>
<path d="M0 0 C3.87987121 2.16971439 5.96960968 4.22849679 7.8125 8.375 C8.65466056 14.31852394 8.29747828 19.32779008 4.8125 24.375 C2.5625 26.8125 2.5625 26.8125 -0.1875 28.375 C-5.83314752 28.05556607 -10.15404698 26.27602431 -15.125 23.8125 C-15.80884766 23.48314453 -16.49269531 23.15378906 -17.19726562 22.81445312 C-18.86481871 22.00982961 -20.52676839 21.1936103 -22.1875 20.375 C-22.80584421 9.76009103 -22.80584421 9.76009103 -20.625 4.875 C-14.55610088 -1.34951192 -8.37136076 -3.68959974 0 0 Z " fill="#FCFCFC" transform="translate(291.1875,204.625)"/>
<path d="M0 0 C4.60669463 2.4569038 7.76568496 5.55480742 10.12890625 10.28125 C10.37198985 15.22394981 10.38385746 18.77134758 8.12890625 23.28125 C5.96016373 22.77521008 4.12922998 22.28141187 2.12890625 21.28125 C-0.92900438 20.86071219 -3.82057613 20.78342247 -6.87109375 21.28125 C-9.68440753 23.67708651 -9.68440753 23.67708651 -11.87109375 26.28125 C-13.19109375 26.28125 -14.51109375 26.28125 -15.87109375 26.28125 C-19.26852347 22.68968144 -20.70828656 19.97444473 -21.18359375 15.03125 C-20.70181365 9.2498888 -18.52445079 5.81362969 -14.30859375 1.90625 C-9.90298928 -1.03081965 -5.07228913 -1.94843674 0 0 Z " fill="#FCFCFC" transform="translate(340.87109375,203.71875)"/>
<path d="M0 0 C3.0625 2.4375 3.0625 2.4375 5 5 C5.33 5.33 5.66 5.66 6 6 C6.46094001 11.99222019 5.41044959 15.01770201 1.69921875 19.609375 C-1.15363776 21.94412654 -3.99833801 21.52303637 -7.55078125 21.4296875 C-11.24379756 20.7817899 -12.82728537 18.94367789 -15 16 C-16.60086627 12.79826746 -16.49917089 9.47422941 -16 6 C-11.8822058 -0.45121091 -7.30538137 -1.06823973 0 0 Z " fill="#050505" transform="translate(260,309)"/>
<path d="M0 0 C2.82424288 2.19022918 4.41508603 3.83017207 6 7 C6.12742751 11.63290034 5.55454372 15.12346315 3.0625 19.0625 C-1.26778117 21.80206564 -5.00728237 22.04937251 -10 21 C-12.82424288 18.80977082 -14.41508603 17.16982793 -16 14 C-16.5811138 6.91041162 -16.5811138 6.91041162 -14.125 3.0625 C-10.0317096 -0.9103995 -5.47565053 -0.79207523 0 0 Z " fill="#040404" transform="translate(194,309)"/>
</svg>
