<svg xmlns="http://www.w3.org/2000/svg" xmlns:xlink="http://www.w3.org/1999/xlink" width="500" zoomAndPan="magnify" viewBox="0 0 375 374.999991" height="500" preserveAspectRatio="xMidYMid meet" version="1.0"><defs><clipPath id="1a35a1ad2c"><path d="M 113 106.492188 L 262.5 106.492188 L 262.5 255.742188 L 113 255.742188 Z M 113 106.492188 " clip-rule="nonzero"/></clipPath></defs><g clip-path="url(#1a35a1ad2c)"><path fill="#000000" d="M 175.886719 254.929688 C 175.316406 254.675781 174.222656 254.449219 173.460938 254.429688 C 171.40625 254.375 158.636719 250.359375 156.195312 248.996094 C 155.035156 248.351562 152.214844 246.804688 149.929688 245.558594 C 143.796875 242.21875 135.4375 235.078125 130.0625 228.589844 C 125.464844 223.042969 118.519531 211.257812 117.726562 207.664062 C 117.535156 206.796875 116.6875 203.957031 115.84375 201.351562 C 113.328125 193.601562 112.496094 181.757812 113.707031 170.960938 C 115.042969 159.070312 121.214844 144.207031 128.335938 135.726562 C 129.648438 134.160156 131.191406 132.296875 131.761719 131.585938 C 133.097656 129.917969 136.589844 126.433594 138.261719 125.097656 C 138.972656 124.53125 140.839844 122.996094 142.410156 121.691406 C 143.976562 120.386719 146.078125 118.832031 147.078125 118.238281 C 152.414062 115.070312 159.035156 111.6875 161.09375 111.078125 C 175.019531 106.945312 177.519531 106.515625 187.566406 106.523438 C 195.109375 106.527344 202.648438 107.320312 205.992188 108.460938 C 207.136719 108.847656 209.824219 109.679688 211.964844 110.304688 C 215.820312 111.433594 221.082031 113.875 226.390625 117.003906 C 227.902344 117.894531 229.28125 118.621094 229.449219 118.621094 C 229.621094 118.621094 231.1875 119.851562 232.929688 121.351562 C 234.675781 122.851562 237.21875 124.972656 238.582031 126.0625 C 241.902344 128.710938 249.964844 138.730469 252.40625 143.238281 C 253.484375 145.230469 254.957031 147.914062 255.675781 149.195312 C 257.085938 151.710938 260.472656 161.957031 261.367188 166.40625 C 262.351562 171.308594 262.496094 188.511719 261.597656 193.738281 C 258.417969 212.21875 248.949219 228 233.714844 240.226562 C 229.917969 243.273438 228.414062 244.214844 220.601562 248.414062 C 216.859375 250.429688 209.519531 252.921875 203.398438 254.261719 C 199.238281 255.171875 177.605469 255.695312 175.886719 254.929688 Z M 199.914062 246.605469 C 206.730469 243.148438 214.386719 235.160156 218.941406 226.746094 C 219.996094 224.796875 220.734375 222.871094 220.582031 222.472656 C 220.203125 221.484375 191.25 221.386719 190.265625 222.367188 C 189.59375 223.039062 189.324219 248.203125 189.984375 248.859375 C 190.800781 249.675781 196.328125 248.421875 199.910156 246.605469 Z M 183.414062 235.996094 C 183.554688 229.15625 183.472656 223.121094 183.230469 222.582031 C 182.839844 221.730469 182.398438 221.648438 179.648438 221.9375 C 177.925781 222.117188 171.410156 222.261719 165.167969 222.261719 C 154.285156 222.261719 153.824219 222.304688 153.824219 223.269531 C 153.824219 223.824219 154.03125 224.402344 154.289062 224.558594 C 154.542969 224.71875 155.386719 226.070312 156.164062 227.570312 C 161.667969 238.160156 174.242188 248.855469 180.820312 248.542969 L 183.15625 248.433594 Z M 218.347656 242.847656 C 219.835938 241.914062 222.179688 240.574219 223.558594 239.867188 C 229.316406 236.921875 243.296875 223.820312 242.335938 222.265625 C 241.839844 221.46875 228.832031 221.585938 228.195312 222.394531 C 227.914062 222.75 226.460938 225.40625 224.964844 228.300781 C 223.472656 231.191406 220.402344 235.921875 218.144531 238.8125 C 215.886719 241.707031 214.042969 244.175781 214.042969 244.308594 C 214.042969 245 215.960938 244.351562 218.347656 242.847656 Z M 158.949219 242.035156 C 158.558594 241.507812 156.8125 239.203125 155.070312 236.910156 C 153.328125 234.617188 150.90625 230.792969 149.6875 228.410156 C 146.378906 221.949219 146.890625 222.261719 139.730469 222.261719 C 134.558594 222.261719 133.582031 222.390625 133.582031 223.054688 C 133.582031 224.074219 142.773438 233.296875 146.773438 236.289062 C 153.445312 241.28125 161.066406 244.878906 158.949219 242.035156 Z M 143.726562 215.488281 C 143.917969 215.179688 143.710938 213.957031 143.265625 212.765625 C 141.945312 209.242188 139.429688 195.457031 139.097656 189.941406 C 138.929688 187.125 138.523438 184.5 138.199219 184.109375 C 137.742188 183.558594 135.710938 183.398438 129.234375 183.40625 C 124.628906 183.410156 120.519531 183.628906 120.101562 183.894531 C 117.867188 185.304688 121.425781 202.21875 125.710938 210.578125 C 128.589844 216.191406 128.304688 216.046875 136.40625 216.046875 C 140.828125 216.046875 143.507812 215.839844 143.726562 215.488281 Z M 183.4375 214.695312 C 183.742188 213.886719 183.894531 207.40625 183.8125 198.5 L 183.675781 183.65625 L 164.988281 183.53125 C 154.6875 183.460938 145.972656 183.613281 145.574219 183.867188 C 144.964844 184.257812 144.941406 185.394531 145.429688 190.988281 C 146.359375 201.691406 149.410156 214.382812 151.34375 215.609375 C 151.710938 215.839844 158.964844 216.03125 167.464844 216.035156 L 182.921875 216.042969 L 183.433594 214.695312 Z M 224.09375 214.359375 C 226.960938 209.789062 231.003906 184.835938 229.070312 183.640625 C 228.308594 183.171875 191.054688 183.339844 190.585938 183.8125 C 190.101562 184.308594 189.40625 212.441406 189.839844 214.15625 L 190.183594 215.527344 L 223.363281 215.527344 Z M 247.609375 214.359375 C 249.707031 212.011719 251.464844 208.191406 253.433594 201.699219 C 255.804688 193.867188 257.183594 184.082031 256.019531 183.34375 C 254.851562 182.605469 237.746094 182.769531 236.738281 183.527344 C 236.070312 184.03125 235.757812 185.671875 235.34375 190.839844 C 234.761719 198.117188 233.039062 208.058594 231.894531 210.75 C 231.5 211.6875 231.171875 213.144531 231.171875 213.988281 L 231.171875 215.527344 L 238.867188 215.527344 C 246.195312 215.527344 246.617188 215.46875 247.609375 214.359375 Z M 138.4375 176.613281 C 138.777344 176.125 139.125 174.011719 139.203125 171.917969 C 139.40625 166.523438 142.144531 151.683594 143.375 149.289062 C 144.375 147.347656 143.625 147.125 136.132812 147.125 C 129.640625 147.125 128.804688 147.226562 127.886719 148.144531 C 126.398438 149.628906 124.5 153.605469 122.90625 158.570312 C 122.136719 160.96875 121.1875 163.925781 120.796875 165.144531 C 119.699219 168.566406 119.265625 175.933594 120.097656 176.9375 C 120.679688 177.636719 122.042969 177.742188 129.296875 177.628906 C 136.652344 177.515625 137.898438 177.378906 138.4375 176.613281 Z M 183.933594 162.671875 C 184.074219 154.832031 183.988281 148.128906 183.738281 147.773438 C 183.394531 147.277344 179.527344 147.125 167.386719 147.132812 C 158.644531 147.136719 151.238281 147.3125 150.933594 147.519531 C 149.976562 148.175781 148.582031 152.34375 147.304688 158.367188 C 145.972656 164.644531 144.742188 175.242188 145.203125 176.445312 C 145.449219 177.082031 148.359375 177.171875 164.582031 177.058594 L 183.671875 176.921875 Z M 228.976562 176.53125 C 230.28125 174.933594 227.621094 156.703125 225.101562 149.976562 L 224.128906 147.382812 L 190.421875 147.382812 L 190.160156 161.542969 C 190.019531 169.332031 190.089844 176.035156 190.316406 176.441406 C 190.890625 177.464844 228.144531 177.550781 228.976562 176.53125 Z M 255.695312 176.53125 C 256.453125 175.949219 256.472656 175.382812 255.878906 170.960938 C 254.765625 162.605469 249.722656 148.914062 247.046875 146.976562 C 246.175781 146.34375 231.78125 146.828125 231.09375 147.511719 C 230.65625 147.949219 230.730469 148.570312 231.386719 149.949219 C 231.867188 150.964844 232.601562 153.71875 233.011719 156.070312 C 233.425781 158.417969 234.003906 161.15625 234.296875 162.152344 C 234.59375 163.148438 234.980469 166.609375 235.160156 169.839844 C 235.382812 173.84375 235.722656 175.949219 236.222656 176.449219 C 237.21875 177.441406 254.414062 177.515625 255.695312 176.53125 Z M 145.625 140.777344 C 146.078125 140.421875 147.695312 137.679688 149.21875 134.6875 C 150.742188 131.695312 153.699219 127.054688 155.789062 124.375 C 157.957031 121.597656 159.394531 119.3125 159.136719 119.054688 C 158.546875 118.464844 149.960938 123.398438 145.847656 126.695312 C 139.84375 131.507812 132.308594 139.546875 132.742188 140.679688 C 133.125 141.675781 144.375 141.761719 145.625 140.777344 Z M 183.753906 140.320312 C 184.304688 139.863281 184.453125 136.980469 184.453125 126.601562 L 184.453125 113.460938 L 183.15625 113.136719 C 181.449219 112.707031 180.003906 113.105469 175.355469 115.277344 C 170.5625 117.515625 164.710938 122.523438 160.640625 127.867188 C 156.847656 132.847656 152.828125 140.289062 153.652344 140.800781 C 154.660156 141.421875 182.96875 140.972656 183.753906 140.320312 Z M 221.007812 140.457031 C 221.429688 139.769531 217.015625 131.914062 213.832031 127.691406 C 209.824219 122.375 204.671875 117.953125 199.652344 115.523438 C 194.820312 113.183594 193.238281 112.699219 191.839844 113.144531 C 190.90625 113.4375 190.824219 114.277344 190.492188 126.464844 C 190.234375 135.945312 190.296875 139.667969 190.730469 140.191406 C 191.210938 140.769531 194.15625 140.90625 206.027344 140.90625 C 214.113281 140.90625 220.851562 140.703125 221.007812 140.457031 Z M 242.808594 140.453125 C 243.210938 139.808594 237.136719 132.871094 233.203125 129.484375 C 228.03125 125.03125 226.019531 123.589844 221.929688 121.414062 L 216.480469 118.519531 C 215.566406 118.035156 214.652344 117.625 214.449219 117.613281 C 213.84375 117.570312 215.886719 120.691406 219.09375 124.699219 C 220.738281 126.761719 223.488281 131.125 225.203125 134.402344 C 226.914062 137.675781 228.667969 140.453125 229.09375 140.570312 C 230.640625 140.996094 242.535156 140.894531 242.808594 140.453125 Z M 242.808594 140.453125 " fill-opacity="1" fill-rule="nonzero"/></g></svg>