<svg width="90" height="90" viewBox="0 0 90 90" fill="none" xmlns="http://www.w3.org/2000/svg">
<path d="M45 56.25C48.9782 56.25 52.7936 54.6696 55.6066 51.8566C58.4196 49.0436 60 45.2282 60 41.25V18.75C60 14.7718 58.4196 10.9564 55.6066 8.1434C52.7936 5.33035 48.9782 3.75 45 3.75C41.0218 3.75 37.2064 5.33035 34.3934 8.1434C31.5804 10.9564 30 14.7718 30 18.75V41.25C30 45.2282 31.5804 49.0436 34.3934 51.8566C37.2064 54.6696 41.0218 56.25 45 56.25ZM37.5 18.75C37.5 16.7609 38.2902 14.8532 39.6967 13.4467C41.1032 12.0402 43.0109 11.25 45 11.25C46.9891 11.25 48.8968 12.0402 50.3033 13.4467C51.7098 14.8532 52.5 16.7609 52.5 18.75V41.25C52.5 43.2391 51.7098 45.1468 50.3033 46.5533C48.8968 47.9598 46.9891 48.75 45 48.75C43.0109 48.75 41.1032 47.9598 39.6967 46.5533C38.2902 45.1468 37.5 43.2391 37.5 41.25V18.75ZM75 41.25C75 40.2554 74.6049 39.3016 73.9017 38.5984C73.1984 37.8951 72.2446 37.5 71.25 37.5C70.2554 37.5 69.3016 37.8951 68.5983 38.5984C67.8951 39.3016 67.5 40.2554 67.5 41.25C67.5 47.2174 65.1295 52.9403 60.9099 57.1599C56.6903 61.3795 50.9674 63.75 45 63.75C39.0326 63.75 33.3097 61.3795 29.0901 57.1599C24.8705 52.9403 22.5 47.2174 22.5 41.25C22.5 40.2554 22.1049 39.3016 21.4016 38.5984C20.6984 37.8951 19.7446 37.5 18.75 37.5C17.7554 37.5 16.8016 37.8951 16.0984 38.5984C15.3951 39.3016 15 40.2554 15 41.25C15.0066 48.5523 17.6765 55.6016 22.509 61.0761C27.3415 66.5507 34.0049 70.0747 41.25 70.9875V78.75H33.75C32.7554 78.75 31.8016 79.1451 31.0984 79.8483C30.3951 80.5516 30 81.5054 30 82.5C30 83.4946 30.3951 84.4484 31.0984 85.1517C31.8016 85.8549 32.7554 86.25 33.75 86.25H56.25C57.2446 86.25 58.1984 85.8549 58.9016 85.1517C59.6049 84.4484 60 83.4946 60 82.5C60 81.5054 59.6049 80.5516 58.9016 79.8483C58.1984 79.1451 57.2446 78.75 56.25 78.75H48.75V70.9875C55.9951 70.0747 62.6585 66.5507 67.491 61.0761C72.3235 55.6016 74.9934 48.5523 75 41.25Z" fill="#1B1B1B"/>
</svg>

