<?xml version="1.0" encoding="UTF-8"?>
<svg version="1.1" xmlns="http://www.w3.org/2000/svg" width="306" height="63">
<path d="M0 0 C0.07442019 5.85324352 0.12872982 11.7062087 0.16479492 17.55981445 C0.17983724 19.5491211 0.20027623 21.53839483 0.22631836 23.52758789 C0.26290246 26.39477689 0.27977218 29.26152559 0.29296875 32.12890625 C0.30845261 33.01147598 0.32393646 33.89404572 0.33988953 34.80335999 C0.3416888 41.47615355 -0.54340148 46.47875415 -5.375 51.4375 C-11.87833461 54.24066147 -18.93774353 54.00315298 -25.625 51.8125 C-28.33315555 49.74574971 -29.6941954 48.14929345 -31 45 C-30.6875 42.6875 -30.6875 42.6875 -30 41 C-27.36 41 -24.72 41 -22 41 C-21.67 41.99 -21.34 42.98 -21 44 C-16.38458018 44.38441491 -16.38458018 44.38441491 -12.125 42.9375 C-10.46514955 40.07886867 -10.30684971 37.25260697 -10 34 C-10.99 34.66 -11.98 35.32 -13 36 C-17.25515489 38.42044236 -20.14552368 38.54808604 -25 38 C-28.75471199 36.58155325 -29.74890985 35.48267815 -31.609375 31.90625 C-33.28778054 27.78245716 -33.49874079 23.97628149 -33.4375 19.5625 C-33.43137695 18.81476318 -33.42525391 18.06702637 -33.41894531 17.29663086 C-33.25700496 11.59695333 -32.44316608 7.68653161 -29 3 C-26.03929829 1.12242429 -23.62938771 0.71688527 -20.15625 0.5859375 C-19.23972656 0.54726562 -18.32320312 0.50859375 -17.37890625 0.46875 C-16.42886719 0.4378125 -15.47882813 0.406875 -14.5 0.375 C-13.54996094 0.33632812 -12.59992188 0.29765625 -11.62109375 0.2578125 C-7.74257639 0.10507201 -3.88222118 0 0 0 Z M-21.80078125 11.66796875 C-23.24776953 14.48181893 -23.40074866 16.40828917 -23.375 19.5625 C-23.38273437 20.51253906 -23.39046875 21.46257813 -23.3984375 22.44140625 C-23.19439269 25.02674589 -23.19439269 25.02674589 -21.66015625 26.8515625 C-19.9323084 28.30052632 -19.9323084 28.30052632 -17.0625 27.8125 C-13.75189189 27.04502703 -13.75189189 27.04502703 -10 25 C-10 20.05 -10 15.1 -10 10 C-12.3821875 9.87625 -12.3821875 9.87625 -14.8125 9.75 C-16.15248047 9.68039063 -16.15248047 9.68039063 -17.51953125 9.609375 C-20.09708097 9.77925049 -20.09708097 9.77925049 -21.80078125 11.66796875 Z " fill="#000000" transform="translate(146,10)"/>
<path d="M0 0 C3.94721356 3.23654387 6.21299715 6.32284782 6.875 11.4375 C6.91625 12.613125 6.9575 13.78875 7 15 C3.62112287 15.28527105 0.36826645 15.45018698 -3 15 C-5.18182341 12.56149148 -6 11.2678851 -6 8 C-11.916932 7.58136014 -11.916932 7.58136014 -17.5 9.1875 C-21.80801097 14.39301326 -20.30584518 23.67682868 -20 30 C-19.53193086 32.80434465 -18.86844544 35.28610801 -18 38 C-16.39667209 38.08121924 -14.79215974 38.13929134 -13.1875 38.1875 C-12.29417969 38.22230469 -11.40085938 38.25710937 -10.48046875 38.29296875 C-7.97689783 38.20351569 -7.97689783 38.20351569 -6.25 36.71875 C-4.32245681 34.06837812 -3.77211419 31.14785016 -3 28 C0.3 28 3.6 28 7 28 C6.64322313 34.60037201 6.34782131 38.75703901 2 44 C1.54625 44.5775 1.0925 45.155 0.625 45.75 C-4.20883499 49.46833461 -10.16942455 49.62258687 -16 49 C-22.21627251 47.67430748 -25.45023565 45.22024169 -29 40 C-31.53600044 34.59387522 -31.3675344 29.62542884 -31.375 23.75 C-31.39949219 22.75097656 -31.42398438 21.75195312 -31.44921875 20.72265625 C-31.4798625 12.90849882 -30.21885235 6.30355899 -24.625 0.5625 C-16.77875862 -4.10788178 -7.9641986 -4.63072991 0 0 Z " fill="#000000" transform="translate(184,3)"/>
<path d="M0 0 C0 13.53 0 27.06 0 41 C-2.64 41 -5.28 41 -8 41 C-8.33 39.68 -8.66 38.36 -9 37 C-9.556875 37.37253906 -10.11375 37.74507812 -10.6875 38.12890625 C-17.70691661 42.48047027 -17.70691661 42.48047027 -22.25 42.125 C-26.58872173 40.82338348 -28.2830114 39.59601432 -31 36 C-33.13930387 30.97075931 -33.33478392 26.43292434 -33.3125 21.0625 C-33.32861328 20.28970703 -33.34472656 19.51691406 -33.36132812 18.72070312 C-33.36679955 12.24801242 -32.26976453 7.67648534 -27.97265625 2.609375 C-23.55416631 0.2172359 -19.39094951 0.32458993 -14.4375 0.25 C-13.01920898 0.20552734 -13.01920898 0.20552734 -11.57226562 0.16015625 C-7.71288785 0.04560228 -3.86124108 0 0 0 Z M-22 12 C-23.05885037 15.1765511 -23.20049266 17.59988011 -23.25 20.9375 C-23.27578125 21.97777344 -23.3015625 23.01804687 -23.328125 24.08984375 C-22.96423357 27.31721419 -22.16358594 28.63713641 -20 31 C-14.6913151 30.41825155 -14.6913151 30.41825155 -10 28 C-9.58571654 26.06923522 -9.58571654 26.06923522 -9.70703125 23.8671875 C-9.71669922 23.06152344 -9.72636719 22.25585938 -9.73632812 21.42578125 C-9.76146484 20.58402344 -9.78660156 19.74226563 -9.8125 18.875 C-9.82603516 18.02550781 -9.83957031 17.17601562 -9.85351562 16.30078125 C-9.88891781 14.20025163 -9.94272599 12.10004707 -10 10 C-11.4370809 9.94577053 -12.87475462 9.90710277 -14.3125 9.875 C-15.51326172 9.84019531 -15.51326172 9.84019531 -16.73828125 9.8046875 C-19.28388576 9.84182678 -19.28388576 9.84182678 -22 12 Z " fill="#000000" transform="translate(67,10)"/>
<path d="M0 0 C4.24846022 2.58906989 5.93565163 5.88136702 7.5625 10.5 C8.06177469 13.54781615 8.08103435 16.48058051 8 19.5625 C8.00708984 20.32626953 8.01417969 21.09003906 8.02148438 21.87695312 C7.95187988 28.13600345 6.68641888 32.97784633 2.5625 37.875 C-1.14340108 40.88604463 -4.69954151 40.69148467 -9.3125 40.75 C-10.52679688 40.77578125 -11.74109375 40.8015625 -12.9921875 40.828125 C-16.70900896 40.474142 -18.49312482 39.74233555 -21.4375 37.5 C-27.45762533 29.47316623 -27.09985373 21.13380448 -26.4375 11.5 C-25.63644425 7.04688693 -24.2302543 4.27293544 -20.9375 1.0625 C-14.79976764 -2.77358273 -6.61796064 -2.82382907 0 0 Z M-15.4921875 10.47265625 C-17.74546245 15.30509303 -17.02376786 21.32232912 -16.4375 26.5 C-15.23190118 29.71364351 -15.23190118 29.71364351 -12.4375 31.5 C-8.97949641 31.91673207 -8.97949641 31.91673207 -5.4375 31.5 C-2.68661134 29.03434173 -2.43230459 27.4550667 -2.00390625 23.75 C-1.98672778 22.33343689 -1.98588536 20.91659695 -2 19.5 C-1.98001953 18.7884375 -1.96003906 18.076875 -1.93945312 17.34375 C-1.94273532 13.82524221 -2.15758519 11.86797134 -4.3125 9.03515625 C-6.34973145 7.35409316 -6.34973145 7.35409316 -8.875 6.9375 C-11.654885 7.54771866 -13.53903942 8.35367484 -15.4921875 10.47265625 Z " fill="#000000" transform="translate(221.4375,11.5)"/>
<path d="M0 0 C4.45652658 2.73468677 5.68654176 5.02357531 7 10 C7.22705078 13.43505859 7.22705078 13.43505859 7.1953125 17.1484375 C7.1924826 17.80582916 7.18965271 18.46322083 7.18673706 19.14053345 C7.17563447 21.21888233 7.15054986 23.29678366 7.125 25.375 C7.11495731 26.79296248 7.10583373 28.21093179 7.09765625 29.62890625 C7.07572805 33.08608037 7.04126818 36.54299642 7 40 C3.7 40 0.4 40 -3 40 C-3.33 30.1 -3.66 20.2 -4 10 C-11.37828793 10.75933726 -11.37828793 10.75933726 -16 12 C-16 21.24 -16 30.48 -16 40 C-19.3 40 -22.6 40 -26 40 C-26 26.8 -26 13.6 -26 0 C-23.36 0 -20.72 0 -18 0 C-17.67 1.32 -17.34 2.64 -17 4 C-16.27554688 3.62746094 -15.55109375 3.25492188 -14.8046875 2.87109375 C-4.89135066 -1.97983241 -4.89135066 -1.97983241 0 0 Z " fill="#000000" transform="translate(261,11)"/>
<path d="M0 0 C3.9745871 2.5292827 5.61869084 4.54073162 7 9 C7.22705078 12.41333008 7.22705078 12.41333008 7.1953125 16.26953125 C7.1924826 16.95053391 7.18965271 17.63153656 7.18673706 18.33317566 C7.17560525 20.49313455 7.15051457 22.65266794 7.125 24.8125 C7.11496111 26.28319711 7.10583685 27.75390076 7.09765625 29.22460938 C7.07568913 32.81654286 7.0412082 36.40822985 7 40 C3.7 40 0.4 40 -3 40 C-3.02505615 39.16227051 -3.0501123 38.32454102 -3.07592773 37.46142578 C-3.17100357 34.35647744 -3.27024025 31.25169819 -3.37231445 28.14697266 C-3.43698251 26.14105193 -3.49683106 24.13497772 -3.55664062 22.12890625 C-3.59853516 20.87207031 -3.64042969 19.61523438 -3.68359375 18.3203125 C-3.72025146 17.15773926 -3.75690918 15.99516602 -3.79467773 14.79736328 C-3.81821659 12.0464499 -3.81821659 12.0464499 -5 10 C-8.68647378 10.60012364 -12.33560916 11.26712183 -16 12 C-16 21.24 -16 30.48 -16 40 C-19.3 40 -22.6 40 -26 40 C-26 26.8 -26 13.6 -26 0 C-18 0 -18 0 -16 1.5 C-15.505 2.2425 -15.505 2.2425 -15 3 C-14.41992188 2.69964844 -13.83984375 2.39929688 -13.2421875 2.08984375 C-5.12259658 -1.86276239 -5.12259658 -1.86276239 0 0 Z " fill="#000000" transform="translate(101,11)"/>
<path d="M0 0 C3.63 0 7.26 0 11 0 C11.42152344 1.43214844 11.84304688 2.86429688 12.27734375 4.33984375 C12.83056076 6.2057791 13.38395534 8.07166182 13.9375 9.9375 C14.21529297 10.88302734 14.49308594 11.82855469 14.77929688 12.80273438 C15.18051758 14.15141602 15.18051758 14.15141602 15.58984375 15.52734375 C15.83597412 16.35999756 16.08210449 17.19265137 16.33569336 18.05053711 C16.83330673 19.98038525 16.83330673 19.98038525 18 21 C19.98 14.07 21.96 7.14 24 0 C27.63 0 31.26 0 35 0 C32.70209134 8.89389897 29.84443518 17.52590282 26.8125 26.1875 C26.34406631 27.53438884 25.87596523 28.88139341 25.40820312 30.22851562 C24.27595638 33.48701658 23.13925314 36.74394102 22 40 C19.03 40 16.06 40 13 40 C11.14670004 34.46474507 9.2953379 28.92884736 7.44580078 23.39233398 C6.81580516 21.50738838 6.18527217 19.6226223 5.55419922 17.73803711 C4.64931515 15.0354595 3.74634015 12.33225069 2.84375 9.62890625 C2.55939087 8.78099014 2.27503174 7.93307404 1.98205566 7.0594635 C0 1.11387171 0 1.11387171 0 0 Z " fill="#000000" transform="translate(271,11)"/>
<path d="M0 0 C3.3 0 6.6 0 10 0 C10.33 13.2 10.66 26.4 11 40 C17.6 40.33 24.2 40.66 31 41 C31 43.97 31 46.94 31 50 C27.27098186 50.08736736 23.54222835 50.14051482 19.8125 50.1875 C18.22985352 50.22520508 18.22985352 50.22520508 16.61523438 50.26367188 C15.08286133 50.27817383 15.08286133 50.27817383 13.51953125 50.29296875 C12.58214111 50.3086792 11.64475098 50.32438965 10.67895508 50.34057617 C6.64340679 49.82753599 4.21329319 48.06520175 1.20581055 45.42480469 C-0.75171498 41.48835125 -0.36585819 37.53363501 -0.29296875 33.203125 C-0.28872391 32.25435486 -0.28447906 31.30558472 -0.28010559 30.32806396 C-0.26333082 27.30175234 -0.22568056 24.2761099 -0.1875 21.25 C-0.17245162 19.19662421 -0.15876348 17.14323797 -0.14648438 15.08984375 C-0.11343117 10.05963852 -0.06165683 5.02993267 0 0 Z " fill="#000000" transform="translate(1,1)"/>
</svg>
