<?xml version="1.0" standalone="no"?>
<!DOCTYPE svg PUBLIC "-//W3C//DTD SVG 20010904//EN"
 "http://www.w3.org/TR/2001/REC-SVG-20010904/DTD/svg10.dtd">
<svg version="1.0" xmlns="http://www.w3.org/2000/svg"
 width="300.000000pt" height="300.000000pt" viewBox="0 0 300.000000 300.000000"
 preserveAspectRatio="xMidYMid meet">
<metadata>
Created by potrace 1.10, written by Peter Selinger 2001-2011
</metadata>
<g transform="translate(0.000000,300.000000) scale(0.100000,-0.100000)"
fill="#000000" stroke="none">
<path d="M1337 2603 c-51 -7 -100 -17 -109 -23 -10 -5 -25 -10 -34 -10 -52 0
-271 -119 -359 -196 -116 -100 -197 -203 -250 -320 -20 -43 -40 -86 -45 -96
-5 -9 -21 -56 -35 -105 -45 -153 -45 -399 2 -543 9 -28 20 -50 25 -50 5 0 7
-4 3 -9 -7 -13 29 -104 38 -95 4 4 7 2 7 -5 0 -23 42 -111 51 -105 5 3 9 -4 9
-15 0 -11 8 -26 19 -33 10 -7 21 -22 25 -34 3 -11 24 -38 46 -59 38 -37 40
-38 54 -20 12 16 16 17 30 6 24 -20 19 -5 -6 19 -26 24 -40 26 -31 3 4 -11 3
-14 -5 -9 -7 4 -12 16 -12 27 0 10 -4 19 -8 19 -16 0 -104 137 -138 216 -74
166 -89 222 -100 370 -15 199 46 417 170 611 38 60 196 213 275 267 76 52 221
115 281 123 60 8 81 13 76 21 -2 4 8 7 22 8 15 0 41 3 59 6 18 3 31 3 30 -2
-2 -9 2 -10 46 -9 25 0 28 2 12 8 -18 7 -17 8 7 13 17 3 26 1 25 -6 -2 -12 22
-13 75 -2 23 4 29 3 18 -4 -9 -6 -10 -10 -3 -10 6 0 19 -3 29 -7 13 -5 16 -3
11 10 -4 11 -2 14 9 10 7 -3 14 -9 14 -13 0 -11 30 -21 42 -14 6 4 5 10 -3 16
-11 8 -11 9 1 5 8 -2 14 -11 14 -19 -1 -11 12 -18 45 -22 26 -3 56 -13 68 -21
12 -8 28 -12 36 -9 8 3 28 -1 44 -9 15 -8 34 -12 40 -10 7 3 16 -2 19 -11 8
-22 25 -20 18 2 -5 14 -4 15 5 2 6 -8 8 -23 5 -32 -6 -19 11 -25 21 -8 6 10 7
10 60 -35 22 -19 25 -24 10 -19 -18 5 -18 4 -2 -6 9 -6 33 -27 52 -47 34 -35
35 -35 36 -12 1 17 3 19 6 7 2 -10 9 -18 13 -18 6 0 5 -11 0 -25 -9 -24 -8
-25 11 -14 15 8 19 8 15 0 -5 -7 2 -11 16 -11 16 0 19 -3 10 -9 -11 -6 -8 -13
13 -29 15 -12 24 -25 21 -30 -3 -5 11 -26 30 -46 28 -30 33 -40 23 -52 -7 -9
-8 -14 -1 -14 16 0 20 23 9 45 -8 17 -6 16 17 -4 25 -24 25 -25 8 -44 -9 -11
-12 -18 -6 -14 13 7 34 -34 34 -65 0 -21 0 -21 15 -2 8 10 15 17 15 14 1 -3 3
-21 5 -40 10 -95 21 -140 36 -140 6 0 6 -7 -1 -19 -14 -27 -13 -34 6 -27 8 3
12 2 9 -3 -3 -5 3 -12 12 -14 11 -3 8 -5 -9 -6 -18 -1 -28 -7 -28 -16 0 -8 4
-15 9 -15 5 0 8 -13 7 -30 -2 -25 0 -27 13 -17 9 6 13 7 9 3 -4 -5 -3 -15 4
-23 8 -10 8 -12 -3 -8 -11 4 -14 -5 -14 -40 0 -25 4 -45 8 -45 5 0 5 -5 1 -12
-4 -7 -9 -37 -10 -68 -5 -96 -7 -110 -13 -110 -3 0 -7 -10 -8 -22 -1 -13 -4
-36 -6 -53 -3 -16 -5 -41 -6 -55 -2 -23 -3 -23 -10 -5 -8 19 -8 19 -20 -3 -10
-18 -9 -22 4 -22 8 0 15 -5 15 -11 0 -5 -4 -8 -8 -5 -5 3 -16 -4 -25 -15 -9
-10 -14 -19 -11 -19 3 0 -2 -7 -11 -16 -13 -14 -14 -19 -3 -25 10 -7 9 -9 -5
-9 -10 0 -22 -11 -27 -25 -5 -14 -20 -29 -33 -34 -12 -5 -29 -17 -37 -27 -13
-17 -13 -17 8 0 25 22 50 10 26 -12 -7 -7 -16 -12 -19 -12 -17 -1 -35 -14 -35
-27 0 -13 2 -13 17 -2 10 8 6 0 -7 -17 -16 -19 -32 -29 -42 -26 -10 2 -15 8
-12 13 3 5 0 9 -6 9 -7 0 -9 -8 -5 -20 3 -11 2 -20 -3 -20 -6 0 -8 -10 -4 -22
4 -17 2 -20 -12 -15 -9 4 -14 3 -11 -2 8 -14 -14 -27 -51 -30 -9 -1 -14 -8
-12 -19 2 -9 10 -16 17 -14 7 1 10 -2 6 -7 -3 -6 -12 -8 -20 -4 -8 3 -15 0
-15 -7 0 -7 -7 -10 -15 -6 -15 5 -62 -48 -57 -65 1 -5 -5 -9 -13 -9 -9 0 -12
6 -9 15 5 11 2 13 -10 9 -9 -3 -16 -14 -16 -23 0 -14 -2 -14 -10 -1 -6 9 -10
10 -10 3 0 -6 -19 -16 -42 -20 -33 -7 -43 -13 -42 -28 0 -14 -7 -20 -23 -21
-13 -1 -23 2 -23 7 0 5 5 9 10 9 6 0 10 7 10 17 0 15 -2 15 -19 -1 -21 -19
-126 -50 -141 -41 -5 3 -11 1 -15 -5 -3 -5 -11 -10 -16 -10 -6 0 -7 5 -4 10 3
6 1 10 -4 10 -6 0 -11 -4 -11 -8 0 -5 -7 -17 -16 -28 -8 -10 -13 -13 -9 -6 5
9 -5 11 -35 9 -36 -3 -41 -1 -36 15 3 16 2 17 -10 7 -7 -6 -12 -14 -10 -18 3
-4 -4 -8 -15 -8 -11 -1 -19 5 -19 13 0 10 -9 14 -30 12 -20 -2 -29 -7 -26 -15
8 -19 -11 -16 -22 3 -6 11 -12 13 -16 6 -5 -8 -19 -7 -47 3 -26 10 -37 11 -33
3 5 -8 2 -9 -9 -5 -10 4 -17 1 -17 -5 0 -7 -7 -3 -16 8 -8 10 -13 13 -9 7 3
-7 1 -13 -4 -13 -6 0 -11 4 -11 8 0 5 -11 14 -25 20 -20 9 -23 9 -18 -4 5 -14
2 -14 -31 0 -58 24 -70 32 -58 40 6 4 23 -1 37 -10 14 -9 25 -12 25 -7 0 5
-15 17 -34 26 -26 12 -36 13 -40 4 -3 -9 -5 -9 -5 1 -1 6 -9 12 -20 12 -28 0
-45 24 -27 39 8 7 12 19 9 27 -3 9 1 14 13 14 11 0 26 5 34 11 13 9 13 10 -1
6 -9 -3 -23 2 -31 11 -8 10 -27 28 -43 41 -22 18 -29 20 -36 10 -6 -10 -9 -11
-9 -2 0 7 -45 59 -99 115 -99 102 -114 125 -195 299 -14 31 -26 59 -26 62 0
15 26 6 37 -12 7 -10 59 -42 116 -70 104 -51 127 -73 127 -121 0 -11 4 -20 9
-20 5 0 12 -17 15 -37 9 -50 26 -93 38 -93 5 0 6 -4 3 -10 -3 -5 -2 -10 4 -10
6 0 13 -11 17 -24 3 -14 12 -27 20 -30 8 -3 14 -13 14 -23 1 -26 26 -58 33
-41 4 10 6 10 6 1 1 -7 8 -13 17 -13 11 0 1 26 -39 103 -30 56 -67 138 -82
182 -14 44 -36 91 -48 103 -12 13 -75 51 -141 83 -113 57 -119 59 -142 44 -13
-8 -24 -25 -24 -36 0 -30 47 -146 83 -204 42 -69 149 -195 164 -195 7 0 10 -7
6 -16 -5 -13 -1 -15 18 -9 13 3 19 3 13 -2 -6 -4 -11 -16 -11 -26 0 -16 2 -16
19 0 10 9 18 11 18 5 0 -6 -5 -14 -10 -17 -6 -3 -10 -11 -10 -18 0 -6 7 -2 15
9 13 16 16 17 25 4 5 -8 10 -11 10 -6 0 11 30 -14 30 -25 0 -5 -8 -6 -17 -3
-17 5 -17 5 0 -9 22 -18 22 -23 -4 -30 -15 -4 -20 -11 -16 -21 7 -18 -1 -20
-23 -6 -12 8 -12 10 2 15 8 3 16 16 16 29 -1 21 -4 22 -44 16 -28 -4 -42 -3
-41 4 1 6 -6 10 -15 10 -10 -1 -15 3 -12 8 3 5 -3 12 -15 15 -12 3 -21 9 -21
13 0 16 -39 18 -45 2 -6 -16 34 -56 69 -68 11 -3 30 -19 43 -34 13 -16 37 -32
54 -35 17 -4 28 -9 25 -13 -9 -8 25 -29 62 -37 17 -3 32 -11 32 -16 0 -5 3 -8
8 -7 4 1 25 -7 47 -17 63 -28 77 -33 135 -45 30 -7 71 -16 91 -21 20 -5 85 -9
145 -9 99 1 140 6 214 25 14 3 41 9 60 12 19 3 50 11 69 19 18 8 41 14 51 14
9 0 34 14 55 30 21 17 45 30 53 30 23 0 117 66 177 125 31 29 53 48 49 42 -8
-17 51 50 95 108 21 28 42 60 46 73 3 12 10 22 15 22 5 0 16 14 25 30 9 17 13
30 9 30 -4 0 -1 7 6 15 7 8 10 21 7 29 -4 9 -1 13 6 10 16 -6 49 63 33 70 -7
3 -7 5 2 5 7 1 12 14 12 31 0 17 4 30 8 30 36 0 56 367 26 471 -8 30 -16 62
-17 72 -1 9 -5 17 -9 17 -4 0 -8 8 -8 18 0 10 -3 22 -7 26 -4 3 -8 15 -10 26
-4 24 -74 174 -84 178 -4 2 -17 22 -28 45 -19 38 -151 197 -151 182 0 -4 -14
7 -31 24 -17 17 -52 43 -77 58 -26 15 -54 35 -62 45 -19 22 -132 78 -157 78
-11 0 -23 4 -29 9 -8 8 -81 25 -209 49 -55 10 -204 7 -298 -5z m531 -84 c-2
-6 -8 -10 -13 -10 -5 0 -11 4 -13 10 -2 6 4 11 13 11 9 0 15 -5 13 -11z m-818
-1754 c0 -8 -7 -15 -15 -15 -8 0 -15 -4 -15 -9 0 -5 7 -14 15 -21 8 -7 15 -17
15 -23 0 -6 -9 -1 -21 12 -11 12 -18 29 -15 37 3 7 0 14 -7 15 -7 0 -3 4 8 9
29 13 35 12 35 -5z m436 -183 c1 -7 0 -8 -3 -2 -7 14 -33 13 -33 -2 0 -6 -3
-9 -6 -5 -3 3 -3 11 1 17 9 14 38 9 41 -8z"/>
<path d="M2093 2559 c2 -8 2 -11 0 -6 -3 4 -37 7 -76 7 -57 0 -69 -3 -59 -12
9 -9 58 -13 172 -13 87 0 156 -3 153 -7 -2 -5 7 -4 21 2 17 6 26 6 26 0 0 -6
7 -10 16 -10 8 0 13 -4 10 -9 -3 -5 3 -11 13 -14 15 -3 19 0 16 14 -3 12 1 16
11 12 10 -4 12 0 8 11 -8 21 -21 24 -177 31 -113 6 -137 5 -134 -6z"/>
<path d="M2403 2513 c-10 -3 -10 -10 -2 -24 5 -11 14 -17 20 -14 5 4 9 -5 9
-19 0 -14 5 -25 11 -23 6 1 13 -11 15 -28 2 -16 8 -60 14 -97 6 -36 9 -80 7
-97 -3 -17 -2 -31 2 -31 4 0 6 -14 3 -30 -2 -17 1 -37 8 -45 7 -8 8 -15 3 -15
-9 0 -7 -89 3 -137 6 -29 24 -30 24 -2 0 13 -4 18 -12 13 -6 -4 -5 2 3 13 12
17 13 39 7 110 -4 48 -8 118 -9 155 0 38 -5 70 -10 74 -14 8 -11 26 4 18 9 -5
9 -4 0 6 -6 7 -9 19 -6 26 3 8 -2 25 -10 38 -12 18 -13 26 -4 36 9 10 9 11 0
6 -7 -4 -13 -2 -13 4 0 6 -5 8 -11 4 -7 -4 -6 2 2 17 11 22 11 23 -5 10 -9 -8
-16 -10 -15 -5 3 12 -12 44 -20 43 -3 0 -12 -3 -18 -6z"/>
<path d="M1630 2471 c0 -10 21 -16 43 -12 4 0 7 -3 7 -7 0 -10 45 -32 66 -32
8 0 32 -8 54 -19 27 -13 42 -15 49 -8 8 8 11 7 11 -4 0 -9 22 -28 48 -42 l49
-27 10 23 c9 19 8 26 -6 35 -15 10 -14 11 2 11 24 1 40 -40 21 -55 -20 -16
-17 -23 6 -17 12 3 20 0 20 -6 0 -7 -4 -9 -10 -6 -5 3 -10 2 -10 -3 0 -5 13
-15 29 -22 16 -6 37 -20 47 -31 11 -12 25 -17 38 -13 17 4 18 3 6 -5 -10 -7
-11 -11 -2 -11 6 0 12 -6 12 -14 0 -8 10 -23 23 -33 13 -10 36 -40 52 -66 15
-27 36 -54 46 -60 11 -7 19 -14 19 -18 0 -8 -88 -51 -169 -83 -61 -24 -88 -26
-76 -5 4 5 0 21 -9 36 -8 16 -20 43 -27 62 -25 68 -121 205 -188 270 -94 91
-99 94 -126 87 -17 -4 -24 -2 -21 6 1 7 1 10 -1 6 -3 -4 -17 0 -31 8 -15 9 -7
-1 17 -23 25 -21 70 -64 101 -95 31 -32 63 -58 73 -58 9 0 17 -4 17 -10 0 -5
-8 -7 -17 -4 -11 4 -14 2 -8 -3 6 -4 25 -28 43 -52 36 -51 42 -49 12 5 -12 20
-19 39 -16 41 3 3 11 -7 18 -23 7 -16 25 -48 41 -72 16 -24 26 -46 23 -49 -3
-4 -6 0 -6 7 0 7 -2 11 -6 8 -3 -3 5 -21 17 -39 11 -19 18 -26 15 -16 -3 11
-2 16 4 12 14 -9 12 -32 -2 -38 -7 -3 -2 -6 12 -6 19 -1 21 -4 12 -13 -16 -16
-15 -28 3 -28 8 0 17 -11 21 -25 13 -53 49 -55 164 -8 89 37 106 49 140 99 29
43 29 44 5 28 -24 -16 -25 -16 -25 11 0 22 -3 25 -20 20 -11 -4 -20 -2 -20 4
0 6 7 11 15 11 8 0 15 3 15 7 0 13 -32 42 -43 39 -7 -2 -9 -1 -4 1 16 10 5 28
-52 84 -33 32 -71 61 -86 65 -20 5 -23 9 -13 15 7 5 8 9 2 9 -6 0 -33 21 -59
47 l-47 48 -12 -24 c-13 -23 -13 -23 -18 -3 -3 12 -1 24 6 27 6 3 -9 3 -34 1
-25 -2 -37 -2 -27 1 14 4 16 8 6 19 -10 12 -14 12 -25 -3 -11 -16 -13 -16 -14
-2 0 11 -17 19 -57 28 -91 20 -153 24 -153 12z m150 -187 c0 -7 8 -18 18 -23
16 -10 16 -10 -1 -11 -10 0 -20 8 -23 18 -3 9 -10 25 -15 34 -14 27 -10 35 6
14 8 -11 15 -25 15 -32z m419 -111 c0 -11 -3 -13 -6 -5 -2 6 -9 10 -14 6 -5
-3 -9 0 -9 5 0 6 7 11 15 11 8 0 15 -8 14 -17z"/>
<path d="M2136 2445 c6 -15 16 -17 144 -19 l75 -2 1 -42 c0 -24 6 -48 12 -54
7 -7 12 -17 12 -22 0 -6 -4 -5 -8 2 -6 8 -9 2 -9 -17 0 -25 2 -27 14 -15 20
20 19 76 -3 119 -24 47 -70 65 -171 65 -60 0 -71 -3 -67 -15z"/>
<path d="M1107 2399 c-89 -36 -224 -146 -314 -256 -38 -46 -88 -169 -72 -178
9 -6 12 0 10 25 -1 8 9 26 21 40 13 14 43 51 68 84 57 75 226 221 280 241 14
6 38 20 53 31 49 39 30 44 -46 13z"/>
<path d="M1327 2385 c-8 -8 -17 -12 -19 -10 -7 7 -54 -49 -92 -108 -66 -105
-108 -201 -136 -315 -12 -49 24 -88 93 -101 125 -24 143 -24 172 2 30 25 28
14 39 272 3 66 8 154 12 195 6 74 6 75 -12 51 -10 -14 -23 -53 -29 -86 -11
-58 -21 -258 -18 -371 l1 -51 -71 14 c-39 7 -86 15 -105 18 -19 2 -36 6 -39 9
-6 6 56 208 66 216 4 3 17 28 31 55 13 28 33 62 45 76 11 15 29 42 40 60 11
18 28 46 37 61 19 30 9 38 -15 13z m-221 -473 c-14 -13 -23 15 -13 38 l11 25
4 -28 c2 -16 1 -31 -2 -35z"/>
<path d="M1184 2370 c-44 -17 -114 -124 -179 -275 -21 -49 -39 -97 -40 -105
-3 -42 -16 -41 -100 5 -89 48 -105 54 -85 30 9 -10 9 -15 1 -15 -6 0 -11 -9
-11 -20 0 -11 -5 -20 -12 -20 -6 0 -9 -3 -6 -6 3 -3 15 0 26 7 18 11 30 9 84
-19 36 -18 71 -32 79 -32 14 1 59 30 45 30 -5 0 3 15 17 33 23 30 24 34 9 46
-10 6 -11 9 -4 6 7 -4 12 1 12 12 0 10 5 25 10 33 7 11 9 5 5 -20 l-5 -35 14
30 c9 17 15 36 16 43 0 19 36 87 98 185 30 48 53 89 51 91 -2 2 -13 0 -25 -4z"/>
<path d="M1526 2359 c5 -9 2 -10 -10 -6 -29 11 -53 -26 -65 -99 -19 -126 -20
-138 -21 -260 -2 -135 5 -157 54 -174 27 -9 237 -6 308 5 26 4 27 3 16 -20
-10 -22 -17 -25 -70 -25 -32 0 -58 -4 -58 -10 0 -13 -47 -13 -55 1 -5 6 -22 8
-49 3 -22 -4 -53 -8 -67 -9 -37 -3 -69 -23 -78 -48 -12 -31 -2 -276 14 -372
14 -82 13 -79 83 -136 11 -9 16 -4 13 14 -1 9 13 9 23 0 4 -5 33 -6 65 -5 43
3 60 0 71 -12 7 -9 10 -19 7 -23 -4 -3 -46 -6 -94 -6 -83 -1 -89 -2 -106 -26
-14 -20 -16 -37 -11 -71 8 -58 39 -158 75 -243 16 -37 29 -74 29 -82 0 -8 7
-15 16 -15 13 0 15 6 9 27 -3 15 -12 31 -18 35 -8 5 -6 8 6 8 9 0 17 -6 17
-14 0 -8 7 -17 16 -20 22 -8 26 -8 22 5 -2 6 -7 10 -11 9 -5 0 -22 28 -39 62
-18 35 -35 64 -39 66 -4 2 -5 12 -2 22 3 12 0 20 -6 20 -7 0 -10 4 -7 9 3 5
-4 35 -15 67 -26 73 -35 124 -21 124 5 0 12 -6 15 -14 10 -26 163 -17 362 22
38 7 39 9 18 20 -30 16 -123 16 -119 0 1 -7 1 -10 -1 -5 -3 4 -17 7 -33 7 -23
0 -27 4 -23 20 6 21 10 23 98 40 146 29 162 78 120 350 -3 19 -6 56 -6 82 0
26 -5 51 -11 55 -7 4 -9 1 -6 -9 4 -8 2 -21 -3 -29 -6 -10 -9 -6 -9 14 0 16
-4 26 -9 22 -5 -3 -13 0 -17 6 -4 7 -3 9 3 6 6 -4 13 -1 16 7 4 10 -7 19 -32
29 -20 9 -43 23 -51 32 -13 15 -11 20 15 41 l30 24 -40 0 c-55 0 -85 -10 -85
-27 0 -8 -5 -11 -10 -8 -6 4 -7 11 -4 17 5 7 -2 9 -20 4 -14 -3 -70 -7 -123
-7 -53 0 -105 -5 -114 -9 -15 -9 -17 1 -18 109 -1 65 5 166 14 225 9 58 13
111 10 116 -6 9 11 23 33 26 6 1 12 -2 12 -6 0 -5 17 -19 38 -31 20 -13 54
-41 76 -64 24 -25 40 -35 43 -27 3 6 8 12 13 12 10 0 8 -20 -4 -38 -5 -8 -1
-20 9 -32 29 -33 125 -216 125 -240 0 -6 7 -10 15 -10 11 0 15 11 15 41 0 24
-4 38 -10 34 -10 -6 -11 -5 -15 34 -1 13 -6 26 -11 30 -16 10 -46 62 -40 68
16 16 -107 179 -126 167 -5 -3 -7 0 -6 7 2 7 -3 14 -9 15 -26 3 -28 5 -14 13
9 6 10 11 2 15 -6 4 -11 2 -11 -3 0 -6 -7 -11 -15 -11 -8 0 -15 9 -15 20 0 11
-2 20 -4 20 -2 0 -20 7 -41 16 -25 10 -34 11 -29 3z m306 -571 c-9 -9 -12 -7
-12 12 0 19 3 21 12 12 9 -9 9 -15 0 -24z m62 -55 c14 -48 36 -208 31 -224 -4
-11 -3 -19 2 -19 8 0 6 -152 -2 -176 -3 -11 -186 -38 -341 -50 l-82 -6 -8 34
c-12 52 -13 63 -22 238 -4 91 -12 171 -16 178 -7 11 57 18 129 14 11 0 27 2
35 5 8 3 42 5 75 5 33 -1 80 3 105 7 72 14 88 12 94 -6z m80 -355 c-5 -57 -14
-61 -12 -4 0 25 4 46 8 46 4 0 6 -19 4 -42z"/>
<path d="M2395 2280 c-4 -16 -10 -30 -14 -30 -5 0 -7 -10 -6 -22 1 -13 3 -28
4 -35 0 -7 8 -10 16 -7 11 5 15 21 14 65 -1 32 -3 59 -5 59 -1 0 -5 -13 -9
-30z"/>
<path d="M671 1941 c-27 -50 -61 -199 -67 -296 l-7 -104 40 -38 c22 -21 47
-43 54 -48 132 -97 177 -120 214 -111 36 9 43 45 46 231 2 123 7 185 16 203
13 24 11 28 -23 63 -20 20 -65 49 -100 64 -35 15 -64 30 -64 34 0 11 -84 5
-88 -7 -2 -7 -8 -12 -13 -12 -6 0 -5 8 1 20 6 11 8 20 6 20 -3 0 -10 -8 -15
-19z m167 -81 c45 -22 86 -40 91 -40 5 0 14 -7 21 -15 9 -10 9 -15 1 -15 -6 0
-11 6 -11 13 0 6 -5 4 -11 -6 -17 -29 -28 -131 -16 -139 8 -4 7 -10 0 -20 -12
-14 -10 -238 2 -258 3 -5 3 -10 -2 -10 -17 0 -85 28 -92 36 -3 5 -18 17 -32
26 -24 15 -94 71 -142 113 -10 9 -16 24 -13 33 3 9 10 62 15 117 6 55 20 125
31 155 12 30 23 61 26 69 3 11 8 10 27 -3 12 -9 59 -34 105 -56z"/>
<path d="M2170 1879 c-143 -61 -153 -72 -144 -159 4 -36 7 -81 7 -100 -1 -25
1 -28 4 -10 9 47 23 45 23 -3 0 -26 5 -47 11 -47 5 0 7 -5 3 -11 -4 -8 -13 -4
-26 12 -13 17 -16 19 -12 6 4 -10 8 -28 9 -40 4 -37 5 -38 14 -33 4 3 11 -22
14 -55 5 -60 11 -78 23 -66 12 11 6 233 -7 305 -1 6 -7 12 -13 12 -7 0 -6 3 1
8 10 6 10 13 0 32 -23 47 -16 61 43 83 30 12 57 25 58 29 2 4 12 8 21 8 10 0
43 14 74 30 31 17 59 30 62 30 2 0 0 -12 -5 -26 -6 -16 -7 -32 0 -43 12 -23
18 -55 30 -166 13 -111 2 -146 -62 -198 -39 -31 -151 -99 -203 -122 -17 -8
-16 -9 13 -13 84 -9 278 137 302 226 9 37 9 48 -5 69 -10 15 -12 22 -4 18 9
-6 11 -4 6 7 -3 9 0 21 6 27 6 6 7 11 1 11 -5 0 -10 8 -11 18 -4 46 -12 75
-23 82 -9 5 -9 9 -1 14 7 5 8 13 2 24 -4 9 -7 25 -6 34 2 11 -2 15 -11 11 -10
-4 -14 3 -14 21 0 23 -4 26 -32 25 -18 0 -85 -23 -148 -50z m-70 -365 c0 -9
-5 -14 -12 -12 -18 6 -21 28 -4 28 9 0 16 -7 16 -16z"/>
<path d="M1050 1795 c-25 -14 -25 -14 -2 -15 12 0 23 0 25 0 1 0 25 -6 52 -15
28 -8 83 -18 123 -22 40 -3 75 -10 79 -15 3 -6 7 -80 8 -166 3 -149 13 -244
30 -286 7 -15 4 -17 -11 -13 -22 6 -97 19 -134 23 -57 5 -146 28 -159 39 -21
21 -19 278 4 402 7 36 -5 48 -29 30 -20 -15 -38 -167 -35 -300 3 -106 7 -123
39 -156 28 -27 117 -52 239 -65 24 -2 47 -10 51 -17 5 -8 10 -5 15 10 7 23 25
29 25 8 0 -7 -4 -18 -10 -25 -5 -7 -2 -5 7 3 20 17 20 37 13 335 l-4 165 -30
31 c-26 26 -42 32 -96 39 -36 4 -72 8 -80 10 -67 14 -97 14 -120 0z"/>
<path d="M2048 1405 c2 -14 6 -25 8 -25 2 0 4 11 4 25 0 14 -4 25 -9 25 -4 0
-6 -11 -3 -25z"/>
<path d="M2235 1321 c-38 -21 -86 -44 -106 -50 -59 -19 -94 -65 -118 -158 -12
-45 -35 -111 -51 -147 -17 -36 -30 -74 -29 -83 0 -11 3 -13 6 -5 2 6 9 12 14
12 6 0 7 -4 4 -10 -3 -5 -2 -10 2 -10 8 0 37 41 35 50 0 3 5 12 12 20 18 23
49 118 41 130 -3 5 -2 10 3 10 5 0 14 26 21 57 11 58 33 93 58 93 25 0 157 67
176 89 18 22 22 41 10 41 -5 0 -39 -18 -78 -39z"/>
<path d="M2329 1315 c-1 -11 -3 -25 -3 -31 -1 -6 -7 -19 -15 -28 -7 -9 -11
-25 -8 -36 3 -13 0 -20 -9 -20 -7 0 -21 -12 -30 -27 -35 -57 -65 -99 -93 -132
-17 -19 -27 -40 -24 -45 3 -6 3 -8 -2 -4 -8 8 -120 -89 -120 -104 0 -4 -13
-17 -30 -28 l-30 -20 36 3 c39 4 75 30 64 47 -3 5 1 10 10 10 9 0 14 -4 10 -9
-3 -5 -1 -12 3 -15 5 -3 15 6 22 19 16 30 25 31 40 8 9 -15 11 -15 7 -2 -3 9
7 30 23 48 23 25 26 31 12 32 -13 0 -12 3 6 11 24 12 31 34 7 24 -8 -3 -15 -1
-15 4 0 6 6 10 13 10 8 0 20 12 27 26 13 24 15 24 27 8 12 -17 13 -17 15 2 0
10 2 24 2 31 1 7 7 18 14 25 16 16 16 45 0 50 -7 3 -2 7 10 10 19 5 22 3 17
-12 -3 -10 -1 -21 5 -25 5 -3 10 -1 10 4 0 16 0 17 10 51 5 19 5 32 -2 36 -6
4 -5 9 3 15 8 4 14 22 15 38 1 17 -2 29 -6 26 -5 -3 -11 1 -13 7 -3 8 -6 5 -8
-7z m-149 -351 c0 0 -9 -11 -20 -24 l-20 -23 0 24 c0 18 5 25 20 25 11 0 20
-1 20 -2z"/>
<path d="M2515 1288 c-5 -18 -9 -112 -10 -208 0 -97 -5 -181 -9 -189 -5 -8 -4
-16 2 -20 6 -4 9 -33 8 -71 -2 -36 1 -70 6 -77 6 -7 6 -19 -1 -31 -6 -11 -8
-22 -5 -25 10 -10 12 -112 2 -125 -6 -7 -7 -12 -1 -12 15 0 8 -96 -7 -115 -9
-11 -25 -15 -46 -13 -18 2 -30 0 -28 -4 3 -4 0 -8 -5 -8 -6 0 -11 7 -11 15 0
19 -40 65 -57 65 -7 0 -12 4 -10 8 1 5 -25 30 -58 57 -33 27 -69 57 -80 67
-11 10 -44 30 -72 43 -42 19 -53 21 -53 10 0 -22 4 -30 15 -30 34 -1 150 -83
225 -160 47 -47 100 -93 118 -100 18 -8 31 -19 28 -24 -10 -16 11 -22 26 -9 8
7 23 18 33 24 19 10 20 23 20 170 -1 187 -15 787 -19 792 -2 1 -7 -12 -11 -30z
m16 -905 c8 -10 9 -14 2 -10 -6 4 -14 3 -18 -3 -7 -11 -48 -14 -59 -3 -7 7 31
32 50 33 6 0 18 -8 25 -17z"/>
<path d="M1083 1189 c-34 -35 -2 -133 92 -279 100 -155 168 -216 251 -225 25
-2 48 -6 52 -9 4 -2 14 3 22 12 13 14 12 15 -3 9 -11 -4 -17 -1 -17 8 0 10
-10 15 -30 15 -17 0 -47 11 -68 24 -78 49 -225 246 -246 329 -3 15 -11 27 -16
27 -6 0 -10 7 -10 15 0 8 -5 24 -12 35 -16 26 -3 36 25 21 27 -15 52 -19 172
-31 50 -4 91 -9 93 -9 1 -1 2 -10 2 -21 0 -48 32 -176 48 -187 13 -11 13 -13
1 -13 -12 0 -12 -2 1 -10 12 -8 12 -10 1 -10 -11 0 -11 -3 -1 -16 8 -8 15 -26
16 -40 2 -14 12 -41 23 -60 12 -19 21 -42 21 -50 0 -18 14 -18 30 1 10 12 10
21 1 41 -6 14 -11 35 -12 47 0 12 -3 17 -5 10 -4 -8 -10 -7 -23 5 -14 14 -15
19 -3 28 12 9 11 17 -6 55 -11 24 -28 81 -38 126 -24 112 -47 135 -147 144
-40 4 -101 10 -137 14 -48 5 -68 3 -77 -6z"/>
<path d="M1930 1151 c-8 -6 -17 -8 -21 -5 -4 2 -15 -17 -25 -43 -90 -250 -171
-378 -235 -370 -12 1 -24 -3 -26 -10 -3 -7 4 -10 19 -6 18 4 20 3 8 -6 -27
-19 20 -13 64 9 40 19 99 89 99 116 0 7 3 11 7 9 7 -4 65 112 65 130 0 6 3 13
8 16 13 10 48 121 43 136 -3 8 -1 11 4 8 6 -3 10 1 10 9 0 19 0 19 -20 7z"/>
<path d="M2406 1041 c-4 -6 -2 -11 5 -11 9 0 9 -4 -1 -15 -8 -10 -11 -68 -8
-212 3 -189 12 -253 28 -207 4 10 3 25 -2 32 -7 8 -7 12 0 12 6 0 12 26 14 59
2 46 0 57 -11 53 -10 -4 -11 1 -6 18 5 15 3 20 -3 16 -6 -3 -4 6 3 21 28 57
10 281 -19 234z"/>
<path d="M2140 740 c-8 -5 8 -18 46 -39 33 -17 82 -52 109 -77 48 -44 82 -64
108 -64 7 1 1 7 -12 14 -14 8 -26 21 -27 31 -3 18 -12 27 -97 86 -64 44 -107
61 -127 49z"/>
<path d="M2038 663 c-33 -17 -36 -28 -7 -30 12 -1 18 1 15 4 -3 4 1 15 11 25
19 21 18 21 -19 1z"/>
<path d="M526 435 c-50 -50 -47 -123 7 -152 53 -28 87 -25 124 12 45 45 45 85
-1 131 -43 43 -92 47 -130 9z m89 -5 c-3 -5 0 -7 8 -4 20 7 47 -33 47 -69 0
-35 -43 -77 -80 -77 -15 0 -39 10 -54 21 -23 18 -26 26 -21 53 10 47 32 74 62
79 16 2 32 5 36 6 5 0 5 -3 2 -9z"/>
<path d="M985 453 c-74 -8 -104 -69 -71 -148 17 -40 21 -42 36 -15 9 17 8 19
-7 13 -10 -3 -15 -3 -11 2 4 4 1 17 -7 28 -14 20 -9 39 24 80 14 17 61 24 61
9 0 -4 9 -8 20 -9 11 -1 20 3 20 8 0 6 5 7 11 4 6 -4 8 -13 5 -20 -3 -8 -1
-27 3 -43 8 -25 5 -31 -23 -49 -17 -11 -44 -24 -59 -27 -24 -6 -27 -9 -17 -21
7 -8 20 -15 29 -14 10 0 11 2 4 6 -21 8 -15 22 7 16 30 -8 68 22 81 65 9 33 8
42 -11 75 -18 30 -27 36 -42 31 -14 -4 -18 -2 -14 5 4 6 6 10 4 9 -2 -1 -21
-3 -43 -5z"/>
<path d="M1365 451 c-31 -13 -52 -42 -59 -84 -7 -40 -1 -61 16 -51 6 4 5 10
-3 16 -11 7 -11 11 -1 15 6 2 12 15 12 27 0 58 79 78 125 31 33 -32 32 -70 -1
-100 -32 -30 -67 -32 -92 -7 -15 15 -20 16 -31 5 -10 -11 -6 -16 23 -28 50
-21 63 -19 107 16 56 44 50 110 -13 149 -35 21 -52 23 -83 11z"/>
</g>
</svg>
