<svg width="70" height="70" viewBox="0 0 70 70" fill="none" xmlns="http://www.w3.org/2000/svg">
<path d="M32.9292 44.5958C32.8037 44.7344 32.6868 44.8805 32.5792 45.0333C32.4688 45.1958 32.3805 45.3724 32.3167 45.5583C32.2326 45.7236 32.1736 45.9005 32.1417 46.0833C32.1273 46.2774 32.1273 46.4724 32.1417 46.6666C32.1318 47.0492 32.2117 47.4288 32.375 47.7749C32.506 48.1369 32.715 48.4656 32.9872 48.7378C33.2593 49.0099 33.588 49.2189 33.95 49.3499C34.2991 49.5042 34.6766 49.5839 35.0583 49.5839C35.44 49.5839 35.8175 49.5042 36.1667 49.3499C36.5286 49.2189 36.8573 49.0099 37.1295 48.7378C37.4017 48.4656 37.6107 48.1369 37.7417 47.7749C37.8712 47.4203 37.9306 47.0439 37.9167 46.6666C37.9189 46.2827 37.8453 45.9022 37.7002 45.5469C37.555 45.1915 37.3411 44.8683 37.0708 44.5958C36.7997 44.3224 36.4771 44.1054 36.1217 43.9573C35.7663 43.8092 35.385 43.733 35 43.733C34.615 43.733 34.2337 43.8092 33.8783 43.9573C33.5229 44.1054 33.2003 44.3224 32.9292 44.5958ZM35 5.83325C29.2314 5.83325 23.5923 7.54385 18.7959 10.7487C13.9994 13.9536 10.2611 18.5088 8.05351 23.8383C5.84595 29.1678 5.26835 35.0323 6.39376 40.6901C7.51916 46.3478 10.297 51.5448 14.376 55.6239C18.4551 59.7029 23.6521 62.4808 29.3099 63.6062C34.9676 64.7316 40.8321 64.154 46.1616 61.9464C51.4911 59.7389 56.0463 56.0005 59.2512 51.2041C62.4561 46.4076 64.1667 40.7685 64.1667 34.9999C64.1667 31.1697 63.4122 27.377 61.9465 23.8383C60.4807 20.2997 58.3323 17.0843 55.6239 14.376C52.9156 11.6676 49.7003 9.51919 46.1616 8.05343C42.6229 6.58767 38.8302 5.83325 35 5.83325ZM35 58.3333C30.3851 58.3333 25.8738 56.9648 22.0367 54.4009C18.1995 51.837 15.2088 48.1928 13.4428 43.9292C11.6768 39.6656 11.2147 34.974 12.115 30.4478C13.0153 25.9216 15.2376 21.764 18.5008 18.5008C21.7641 15.2375 25.9217 13.0153 30.4479 12.1149C34.9741 11.2146 39.6657 11.6767 43.9293 13.4427C48.1929 15.2088 51.837 18.1995 54.4009 22.0366C56.9648 25.8738 58.3333 30.385 58.3333 34.9999C58.3333 41.1883 55.875 47.1232 51.4991 51.4991C47.1233 55.8749 41.1884 58.3333 35 58.3333ZM35 20.4166C33.4631 20.4156 31.953 20.8194 30.6218 21.5875C29.2906 22.3555 28.1851 23.4606 27.4167 24.7916C27.2056 25.1236 27.0639 25.4948 27.0001 25.8829C26.9362 26.2711 26.9516 26.6681 27.0452 27.0502C27.1387 27.4323 27.3087 27.7915 27.5447 28.1062C27.7807 28.4209 28.0779 28.6846 28.4184 28.8815C28.759 29.0783 29.1359 29.2043 29.5264 29.2517C29.9169 29.2991 30.3129 29.2671 30.6907 29.1575C31.0685 29.0479 31.4202 28.863 31.7247 28.6139C32.0292 28.3649 32.2802 28.0568 32.4625 27.7083C32.7195 27.2632 33.0895 26.8939 33.5351 26.6378C33.9807 26.3817 34.486 26.2479 35 26.2499C35.7735 26.2499 36.5154 26.5572 37.0624 27.1042C37.6094 27.6512 37.9167 28.393 37.9167 29.1666C37.9167 29.9401 37.6094 30.682 37.0624 31.229C36.5154 31.776 35.7735 32.0833 35 32.0833C34.2264 32.0833 33.4846 32.3905 32.9376 32.9375C32.3906 33.4845 32.0833 34.2264 32.0833 34.9999V37.9166C32.0833 38.6901 32.3906 39.432 32.9376 39.979C33.4846 40.526 34.2264 40.8333 35 40.8333C35.7735 40.8333 36.5154 40.526 37.0624 39.979C37.6094 39.432 37.9167 38.6901 37.9167 37.9166V37.3916C39.8457 36.6916 41.4673 35.336 42.4981 33.5616C43.5289 31.7872 43.9032 29.707 43.5557 27.6846C43.2082 25.6622 42.161 23.8262 40.5971 22.4977C39.0331 21.1691 37.052 20.4325 35 20.4166Z" fill="#1B1B1B"/>
</svg>