<svg xmlns="http://www.w3.org/2000/svg" xmlns:xlink="http://www.w3.org/1999/xlink" width="500" zoomAndPan="magnify" viewBox="0 0 375 374.999991" height="500" preserveAspectRatio="xMidYMid meet" version="1.0"><defs><clipPath id="238dd946af"><path d="M 58.433594 79.085938 L 253.433594 79.085938 L 253.433594 274.085938 L 58.433594 274.085938 Z M 58.433594 79.085938 " clip-rule="nonzero"/></clipPath><clipPath id="a47dc745de"><path d="M 155.976562 79.085938 C 102.105469 79.085938 58.433594 122.757812 58.433594 176.625 C 58.433594 230.496094 102.105469 274.167969 155.976562 274.167969 C 209.847656 274.167969 253.515625 230.496094 253.515625 176.625 C 253.515625 122.757812 209.847656 79.085938 155.976562 79.085938 Z M 155.976562 79.085938 " clip-rule="nonzero"/></clipPath><clipPath id="aaed67f34d"><path d="M 110.976562 102 L 200.976562 102 L 200.976562 213 L 110.976562 213 Z M 110.976562 102 " clip-rule="nonzero"/></clipPath><clipPath id="9cf83459d4"><path d="M 141 224 L 170 224 L 170 251.628906 L 141 251.628906 Z M 141 224 " clip-rule="nonzero"/></clipPath></defs><g clip-path="url(#238dd946af)"><g clip-path="url(#a47dc745de)"><path stroke-linecap="butt" transform="matrix(0.75, 0, 0, 0.75, 58.434915, 79.08586)" fill="none" stroke-linejoin="miter" d="M 130.055538 0.000102791 C 58.227409 0.000102791 -0.00176175 58.229273 -0.00176175 130.052195 C -0.00176175 201.880324 58.227409 260.109495 130.055538 260.109495 C 201.883668 260.109495 260.10763 201.880324 260.10763 130.052195 C 260.10763 58.229273 201.883668 0.000102791 130.055538 0.000102791 Z M 130.055538 0.000102791 " stroke="#222222" stroke-width="8" stroke-opacity="1" stroke-miterlimit="4"/></g></g><g clip-path="url(#aaed67f34d)"><path fill="#100f0d" d="M 144.835938 209.628906 L 166.367188 209.628906 C 166.359375 208.738281 166.347656 207.902344 166.335938 207.121094 C 166.191406 196.230469 166.511719 194.074219 178.753906 181.683594 C 187.3125 173.019531 197.964844 162.246094 197.324219 145.285156 C 196.503906 123.621094 178.882812 106.007812 157.21875 105.1875 C 145.78125 104.730469 134.910156 108.875 126.652344 116.824219 C 118.75 124.433594 114.25 134.542969 113.882812 145.4375 L 135.441406 145.4375 C 135.792969 140.453125 137.945312 135.847656 141.585938 132.335938 C 145.652344 128.425781 150.996094 126.414062 156.652344 126.710938 C 165.757812 127.179688 173.484375 133.988281 175.445312 143.273438 C 177.285156 152.003906 172.078125 157.804688 163.4375 166.550781 C 144.769531 185.4375 144.789062 192.722656 144.835938 208.667969 Z M 169.296875 212.550781 L 141.90625 212.550781 L 141.90625 208.679688 C 141.863281 192.40625 141.84375 184.238281 161.359375 164.492188 C 169.789062 155.960938 174.121094 151.167969 172.582031 143.875 C 170.925781 136.015625 164.160156 130.023438 156.5 129.636719 C 151.679688 129.398438 147.089844 131.101562 143.617188 134.449219 C 140.199219 137.734375 138.316406 142.160156 138.316406 146.902344 L 138.316406 148.363281 L 110.933594 148.363281 L 110.933594 146.902344 C 110.933594 134.644531 115.792969 123.21875 124.621094 114.710938 C 133.460938 106.207031 145.089844 101.769531 157.328125 102.257812 C 180.515625 103.140625 199.363281 121.988281 200.246094 145.175781 C 200.9375 163.402344 189.792969 174.675781 180.835938 183.742188 C 169.105469 195.613281 169.128906 197.140625 169.261719 207.082031 C 169.28125 208.292969 169.296875 209.617188 169.296875 211.09375 L 169.296875 212.550781 " fill-opacity="1" fill-rule="nonzero"/></g><g clip-path="url(#9cf83459d4)"><path fill="#100f0d" d="M 144.835938 248.550781 L 166.371094 248.550781 L 166.371094 227.019531 L 144.835938 227.019531 Z M 169.296875 251.476562 L 141.90625 251.476562 L 141.90625 224.09375 L 169.296875 224.09375 L 169.296875 251.476562 " fill-opacity="1" fill-rule="nonzero"/></g></svg>