<svg width="90" height="90" viewBox="0 0 90 90" fill="none" xmlns="http://www.w3.org/2000/svg">
<path d="M46.6125 15.375C46.0035 15.1115 45.3355 15.0144 44.6767 15.0934C44.0179 15.1725 43.3919 15.4249 42.8625 15.825L24.9375 30H11.25C10.2554 30 9.30161 30.3951 8.59835 31.0983C7.89509 31.8016 7.5 32.7554 7.5 33.75V56.25C7.5 57.2446 7.89509 58.1984 8.59835 58.9016C9.30161 59.6049 10.2554 60 11.25 60H24.9375L42.675 74.175C43.3348 74.7044 44.1541 74.9951 45 75C45.5601 75.0093 46.1139 74.8805 46.6125 74.625C47.2506 74.3211 47.7899 73.843 48.1681 73.2458C48.5463 72.6487 48.748 71.9568 48.75 71.25V18.75C48.748 18.0432 48.5463 17.3513 48.1681 16.7542C47.7899 16.157 47.2506 15.6789 46.6125 15.375ZM41.25 63.45L28.575 53.325C27.9152 52.7956 27.0959 52.5049 26.25 52.5H15V37.5H26.25C27.0959 37.4951 27.9152 37.2043 28.575 36.675L41.25 26.55V63.45ZM73.725 23.775C73.0189 23.0689 72.0611 22.6722 71.0625 22.6722C70.0639 22.6722 69.1061 23.0689 68.4 23.775C67.6939 24.4811 67.2972 25.4389 67.2972 26.4375C67.2972 27.4361 67.6939 28.3939 68.4 29.1C70.6082 31.3048 72.3336 33.9447 73.4667 36.8522C74.5998 39.7596 75.1157 42.871 74.9817 45.9886C74.8477 49.1061 74.0667 52.1617 72.6883 54.9612C71.3099 57.7607 69.3643 60.2429 66.975 62.25C66.3947 62.7461 65.9797 63.4076 65.7855 64.1459C65.5912 64.8842 65.6269 65.6642 65.8878 66.3817C66.1487 67.0992 66.6224 67.72 67.2455 68.161C67.8687 68.6021 68.6116 68.8425 69.375 68.85C70.2512 68.8517 71.1003 68.5466 71.775 67.9875C74.966 65.3148 77.566 62.0074 79.4095 58.2755C81.253 54.5436 82.2997 50.4689 82.4831 46.3105C82.6665 42.1522 81.9826 38.0011 80.4748 34.1214C78.967 30.2417 76.6683 26.7182 73.725 23.775ZM63.1125 34.3875C62.7629 34.0379 62.3478 33.7605 61.8909 33.5713C61.4341 33.382 60.9445 33.2847 60.45 33.2847C59.9555 33.2847 59.4659 33.382 59.0091 33.5713C58.5522 33.7605 58.1371 34.0379 57.7875 34.3875C57.4379 34.7371 57.1605 35.1522 56.9713 35.6091C56.782 36.0659 56.6847 36.5555 56.6847 37.05C56.6847 37.5445 56.782 38.0341 56.9713 38.4909C57.1605 38.9478 57.4379 39.3629 57.7875 39.7125C59.196 41.1126 59.9916 43.0141 60 45C60.0009 46.0926 59.7631 47.1721 59.3032 48.1632C58.8433 49.1542 58.1724 50.0328 57.3375 50.7375C56.9578 51.0523 56.6439 51.4389 56.4138 51.8752C56.1838 52.3115 56.042 52.7889 55.9967 53.2801C55.9515 53.7713 56.0035 54.2665 56.1499 54.7376C56.2963 55.2086 56.5342 55.6461 56.85 56.025C57.1675 56.402 57.5561 56.7127 57.9937 56.9394C58.4314 57.1661 58.9094 57.3042 59.4005 57.346C59.8915 57.3878 60.386 57.3324 60.8557 57.183C61.3253 57.0335 61.7609 56.7929 62.1375 56.475C63.8142 55.0692 65.163 53.3136 66.0894 51.3313C67.0157 49.349 67.4972 47.188 67.5 45C67.4788 41.0254 65.9042 37.2167 63.1125 34.3875Z" fill="#1B1B1B"/>
</svg>
